<svg xmlns="http://www.w3.org/2000/svg" viewBox="-0.01898193359375 0.016021728515625 378.45904541015625 317.0639953613281"><defs><radialGradient id="a8cc73744-8ac6-4ac3-9226-52004df8ada7" cx="629.58" cy="-881.82" r="424.69" gradientTransform="rotate(15.06 -3895.08 872.875)" gradientUnits="userSpaceOnUse"><stop offset="0" stop-color="#e50012"></stop><stop offset="1" stop-color="#c30d23"></stop></radialGradient><radialGradient id="b4c0dfbd2-8c9f-4cb7-999e-bd1fc594b47f" cx="-244.48" cy="-2180.7" r="424.69" gradientTransform="rotate(32.59 -3661.46 562.582)" gradientUnits="userSpaceOnUse"><stop offset="0" stop-color="#e50012"></stop><stop offset="1" stop-color="#c30d23"></stop></radialGradient><radialGradient id="cedd8000a-9e64-4784-a759-f665d492d8f0" cx="629.57" cy="-881.81" r="424.67" gradientTransform="rotate(15.06 -3895.08 872.875)" gradientUnits="userSpaceOnUse"><stop offset="0" stop-color="#e50012"></stop><stop offset="1" stop-color="#c30d23"></stop></radialGradient><radialGradient id="d617ea616-91b8-4f5c-a31a-4a2e3d10d93d" cx="629.56" cy="-881.82" r="424.69" gradientTransform="rotate(15.06 -3895.08 872.875)" gradientUnits="userSpaceOnUse"><stop offset="0" stop-color="#e50012"></stop><stop offset="1" stop-color="#c30d23"></stop></radialGradient><radialGradient id="ed569a506-6dcb-45f6-a6b5-e238d3bba9d9" cx="629.57" cy="-881.82" r="424.68" gradientTransform="rotate(15.06 -3895.08 872.875)" gradientUnits="userSpaceOnUse"><stop offset="0" stop-color="#e50012"></stop><stop offset="1" stop-color="#c30d23"></stop></radialGradient><radialGradient id="f1e3696c8-333f-4785-8843-fe4018d1cd22" cx="629.57" cy="-881.82" r="424.68" gradientTransform="rotate(15.06 -3895.08 872.875)" gradientUnits="userSpaceOnUse"><stop offset="0" stop-color="#e50012"></stop><stop offset="1" stop-color="#c30d23"></stop></radialGradient><radialGradient id="g0df0c831-1c91-49d6-9204-f25e497abd85" cx="629.57" cy="-881.82" r="424.68" gradientTransform="rotate(15.06 -3895.08 872.875)" gradientUnits="userSpaceOnUse"><stop offset="0" stop-color="#e50012"></stop><stop offset="1" stop-color="#c30d23"></stop></radialGradient></defs><path d="M632.7 358.14a133.08 133.08 0 0 1 151.54-96.47c-3.66-1.34-7.41-2.54-11.25-3.57a133.06 133.06 0 0 0-69.15 257c3.84 1 7.69 1.87 11.53 2.55a133.06 133.06 0 0 1-82.67-159.51z" transform="translate(-534.3 -230.07)" fill="url(#a8cc73744-8ac6-4ac3-9226-52004df8ada7)"></path><path d="M585.86 323.66A168 168 0 0 1 805 265.12c-3.9-3-8-5.88-12.19-8.58a168 168 0 0 0-181 283.15q6.35 4 12.9 7.46a168 168 0 0 1-38.85-223.49z" transform="translate(-534.3 -230.07)" fill="url(#b4c0dfbd2-8c9f-4cb7-999e-bd1fc594b47f)"></path><path d="M715.83 355.89a73.66 73.66 0 0 0 7.58 55 103.07 103.07 0 0 0 189.33-26.18 126.83 126.83 0 0 1-4.53 24.29 125.12 125.12 0 0 1-58 74 96.5 96.5 0 0 1-134.36-127z" transform="translate(-534.3 -230.07)" fill="url(#cedd8000a-9e64-4784-a759-f665d492d8f0)"></path><path d="M714 304.93a96.36 96.36 0 0 1 91.57-2.57 73.66 73.66 0 0 0-55 7.58 103.13 103.13 0 0 0 4.64 181.24 104.15 104.15 0 0 0 21.06 8 125.7 125.7 0 0 1-97.77-62.44A96.49 96.49 0 0 1 714 304.93z" transform="translate(-534.3 -230.07)" fill="url(#d617ea616-91b8-4f5c-a31a-4a2e3d10d93d)"></path><path d="M755.25 362.63c.45-.8.94-1.61 1.46-2.43a53 53 0 0 1 97.5 25.46 40.42 40.42 0 0 0-18.82-24 56.67 56.67 0 0 0-84.72 52.45 57.15 57.15 0 0 0 2.1 12.37 70.41 70.41 0 0 1-3.85-10.16 68.72 68.72 0 0 1 5-51.23c.42-.84.88-1.67 1.33-2.46z" transform="translate(-534.3 -230.07)" fill="url(#ed569a506-6dcb-45f6-a6b5-e238d3bba9d9)"></path><path d="M869.37 349.12c13.29-25.16-32.29-64.26-55.87-74.6-59.84-26.24-125.41-1.32-148.07 69.11-2 6.34-2.7 13-3.27 19.5a104.32 104.32 0 0 1 8.05-21.36 103.13 103.13 0 0 1 181.27-4.68 73.65 73.65 0 0 1 7.58 55l4.35-6.25a43.08 43.08 0 0 0 5.96-36.72z" transform="translate(-534.3 -230.07)" fill="url(#f1e3696c8-333f-4785-8843-fe4018d1cd22)"></path><path d="M848.87 346.83l-30.46-40.55 3.66 9.2a11.55 11.55 0 0 1-.93 10.38l-.77 1.23s1.63 6.91 28.5 19.74z" transform="translate(-534.3 -230.07)" fill="url(#g0df0c831-1c91-49d6-9204-f25e497abd85)"></path></svg>